<svg viewBox="0 0 1000 500" xmlns="http://www.w3.org/2000/svg">
  <defs>
    <linearGradient id="sky2" x1="0" y1="0" x2="0" y2="1">
      <stop offset="0%" stop-color="#020103"/>
      <stop offset="40%" stop-color="#170a19"/>
      <stop offset="70%" stop-color="#3a1018"/>
      <stop offset="100%" stop-color="#6e2420"/>
    </linearGradient>
    <linearGradient id="ground" x1="0" y1="0" x2="0" y2="1">
      <stop offset="0%" stop-color="#241016"/>
      <stop offset="100%" stop-color="#04030a"/>
    </linearGradient>
    <filter id="grain2">
      <feTurbulence type="fractalNoise" baseFrequency="0.9" numOctaves="2" stitchTiles="stitch" result="n"/>
      <feColorMatrix in="n" type="matrix"
        values="0 0 0 0 1
                0 0 0 0 1
                0 0 0 0 1
                0 0 0 0.04 0"/>
    </filter>
  </defs>

  <rect width="1000" height="500" fill="url(#sky2)"/>

  <!-- far background skyline, small and faint -->
  <g opacity="0.5">
    <rect x="0" y="230" width="40" height="130" fill="#0d0810"/>
    <rect x="46" y="210" width="34" height="150" fill="#0d0810"/>
    <rect x="86" y="245" width="46" height="115" fill="#0d0810"/>
    <rect x="820" y="220" width="42" height="140" fill="#0d0810"/>
    <rect x="868" y="205" width="34" height="155" fill="#0d0810"/>
    <rect x="908" y="240" width="50" height="120" fill="#0d0810"/>
  </g>

  <!-- near skyline, running along the whole width -->
  <path d="M0,360 L0,260 L30,255 L36,200 L70,205 L76,150 L112,155
           L120,250 L160,245 L166,180 L206,185 L212,270 L260,265
           L266,210 L306,215 L312,300 L356,296 L360,150 L392,155
           L398,280 L440,275 L446,200 L486,205 L492,140 L520,145
           L526,270 L566,265 L572,180 L612,185 L618,300 L656,296
           L660,220 L700,225 L706,150 L740,155 L746,290 L786,286
           L790,200 L830,205 L836,110 L866,115 L870,280 L900,276
           L906,190 L946,195 L950,300 L990,296 L1000,300 L1000,360 Z"
    fill="#0a050c"/>

  <!-- flickering wrong-colored windows across the row -->
  <g opacity="0.75">
    <rect x="14" y="280" width="3" height="5" fill="#8f2f2a"/>
    <rect x="52" y="230" width="3" height="5" fill="#e8c9b0"/>
    <rect x="100" y="270" width="3" height="5" fill="#e8c9b0"/>
    <rect x="180" y="220" width="3" height="5" fill="#8f2f2a"/>
    <rect x="280" y="240" width="3" height="5" fill="#e8c9b0"/>
    <rect x="370" y="185" width="3" height="5" fill="#e8c9b0"/>
    <rect x="460" y="230" width="3" height="5" fill="#8f2f2a"/>
    <rect x="580" y="220" width="3" height="5" fill="#e8c9b0"/>
    <rect x="680" y="260" width="3" height="5" fill="#e8c9b0"/>
    <rect x="760" y="200" width="3" height="5" fill="#8f2f2a"/>
    <rect x="850" y="180" width="3" height="5" fill="#e8c9b0"/>
    <rect x="920" y="240" width="3" height="5" fill="#e8c9b0"/>
  </g>

  <!-- street running straight across, seen from the side -->
  <rect x="0" y="360" width="1000" height="70" fill="url(#ground)"/>
  <rect x="0" y="360" width="1000" height="6" fill="#6e2420" opacity="0.25"/>

  <!-- broken center line, running the length of the street -->
  <g stroke="#3a1018" stroke-width="3" opacity="0.6" stroke-dasharray="26 18">
    <line x1="0" y1="396" x2="1000" y2="396"/>
  </g>
  <g stroke="#2a0d12" stroke-width="1" opacity="0.5">
    <line x1="0" y1="368" x2="1000" y2="368"/>
    <line x1="0" y1="424" x2="1000" y2="424"/>
  </g>

  <!-- dead streetlight, side profile -->
  <g>
    <rect x="184" y="230" width="5" height="130" fill="#04030a"/>
    <path d="M186,232 L228,232" stroke="#04030a" stroke-width="5" fill="none"/>
    <circle cx="228" cy="232" r="5" fill="#8f2f2a" opacity="0.55"/>
    <circle cx="228" cy="232" r="14" fill="#8f2f2a" opacity="0.12"/>
  </g>

  <!-- the figure, walking sideways down the street, mid-stride, glitching -->
  <g opacity="0.9">
    <!-- red channel, offset left -->
    <g fill="#ff3b3b" opacity="0.55" transform="translate(-4,0)">
      <circle cx="470" cy="316" r="10"/>
      <path d="M470,326
               C462,330 458,344 460,362
               L452,398
               L462,400
               L470,368
               L480,398
               L490,396
               L480,360
               C486,346 482,330 470,326 Z"/>
      <path d="M468,332 C452,336 444,348 448,362 L456,360 C452,350 458,340 470,338 Z"/>
    </g>
    <!-- cyan channel, offset right -->
    <g fill="#38f5d6" opacity="0.5" transform="translate(4,0)">
      <circle cx="470" cy="316" r="10"/>
      <path d="M470,326
               C462,330 458,344 460,362
               L452,398
               L462,400
               L470,368
               L480,398
               L490,396
               L480,360
               C486,346 482,330 470,326 Z"/>
      <path d="M468,332 C452,336 444,348 448,362 L456,360 C452,350 458,340 470,338 Z"/>
    </g>
    <!-- base silhouette -->
    <g fill="#020103">
      <circle cx="470" cy="316" r="10"/>
      <path d="M470,326
               C462,330 458,344 460,362
               L452,398
               L462,400
               L470,368
               L480,398
               L490,396
               L480,360
               C486,346 482,330 470,326 Z"/>
      <path d="M468,332 C452,336 444,348 448,362 L456,360 C452,350 458,340 470,338 Z"/>
    </g>
    <!-- torn glitch slices, sliding out of alignment -->
    <g>
      <clipPath id="slice1"><rect x="440" y="330" width="60" height="8"/></clipPath>
      <clipPath id="slice2"><rect x="440" y="352" width="60" height="6"/></clipPath>
      <clipPath id="slice3"><rect x="440" y="376" width="60" height="7"/></clipPath>
      <g clip-path="url(#slice1)" transform="translate(10,0)">
        <circle cx="470" cy="316" r="10" fill="#ff3b3b" opacity="0.6"/>
        <path d="M470,326 C462,330 458,344 460,362 L490,362 L480,360 C486,346 482,330 470,326 Z" fill="#38f5d6" opacity="0.5"/>
      </g>
      <g clip-path="url(#slice2)" transform="translate(-12,0)">
        <path d="M452,398 L462,400 L470,368 L480,398 L490,396 L480,360 L460,362 Z" fill="#ff3b3b" opacity="0.55"/>
      </g>
      <g clip-path="url(#slice3)" transform="translate(8,0)">
        <path d="M452,398 L462,400 L470,368 L480,398 L490,396 L480,360 L460,362 Z" fill="#38f5d6" opacity="0.5"/>
      </g>
    </g>
    <!-- static flecks around the figure -->
    <g fill="#e8c9b0" opacity="0.5">
      <rect x="446" y="340" width="2" height="2"/>
      <rect x="494" y="368" width="2" height="2"/>
      <rect x="440" y="380" width="2" height="2"/>
      <rect x="486" y="320" width="2" height="2"/>
    </g>
  </g>

  <!-- ground fog, low -->
  <rect x="0" y="410" width="1000" height="90" fill="#020103" opacity="0.55"/>

  <rect width="1000" height="500" filter="url(#grain2)"/>
  <rect width="1000" height="500" fill="black" opacity="0.2"/>
</svg>
